<svg xmlns="http://www.w3.org/2000/svg" xmlns:xlink="http://www.w3.org/1999/xlink" viewBox="0 0 900 900"><defs><style>.cls-1{fill:#490e67;}.cls-2{fill:#d40054;}.cls-3{font-size:82px;font-family:CenturyGothic-Bold, Century Gothic;font-weight:700;}.cls-10,.cls-3{fill:#fff;}.cls-4{fill:url(#linear-gradient);}.cls-5{fill:url(#linear-gradient-2);}.cls-6{fill:url(#linear-gradient-3);}.cls-7{fill:url(#linear-gradient-4);}.cls-8{fill:url(#linear-gradient-5);}.cls-9{fill:lime;}.cls-10{font-size:61.7px;font-family:BatmanForeverAlternate;}.cls-11{fill:url(#linear-gradient-6);}.cls-12{fill:url(#linear-gradient-7);}.cls-13{fill:url(#linear-gradient-8);}.cls-14{fill:url(#linear-gradient-9);}.cls-15{fill:url(#linear-gradient-10);}.cls-16{fill:url(#linear-gradient-11);}.cls-17{fill:url(#linear-gradient-12);}.cls-18{fill:#00d900;}.cls-19{fill:#00b300;}.cls-20{fill:#008c00;}.cls-21{fill:#060;}</style><linearGradient id="linear-gradient" x1="668.39" y1="314.57" x2="50" y2="314.57" gradientUnits="userSpaceOnUse"><stop offset="0" stop-color="aqua"/><stop offset="0.08" stop-color="#00f6ff"/><stop offset="0.23" stop-color="#00dcff"/><stop offset="0.41" stop-color="#00b2ff"/><stop offset="0.62" stop-color="#0079ff"/><stop offset="0.86" stop-color="#0030ff"/><stop offset="1" stop-color="blue"/></linearGradient><linearGradient id="linear-gradient-2" x1="757.26" y1="725.04" x2="145.79" y2="725.04" xlink:href="#linear-gradient"/><linearGradient id="linear-gradient-3" x1="331.2" y1="557.91" x2="51.59" y2="557.91" xlink:href="#linear-gradient"/><linearGradient id="linear-gradient-4" x1="818.21" y1="155.8" x2="242.78" y2="155.8" xlink:href="#linear-gradient"/><linearGradient id="linear-gradient-5" x1="818.18" y1="823.62" x2="331.59" y2="823.62" xlink:href="#linear-gradient"/><linearGradient id="linear-gradient-6" x1="221.73" y1="837.61" x2="369.48" y2="689.85" gradientUnits="userSpaceOnUse"><stop offset="0" stop-color="#fe3b1f"/><stop offset="1" stop-color="#d40054"/></linearGradient><linearGradient id="linear-gradient-7" x1="136.71" y1="769.97" x2="520.35" y2="386.33" xlink:href="#linear-gradient-6"/><linearGradient id="linear-gradient-8" x1="283.64" y1="526.67" x2="547.74" y2="262.57" xlink:href="#linear-gradient-6"/><linearGradient id="linear-gradient-9" x1="513.27" y1="410.32" x2="658.74" y2="264.86" xlink:href="#linear-gradient-6"/><linearGradient id="linear-gradient-10" x1="507.33" y1="641.36" x2="773.06" y2="375.64" xlink:href="#linear-gradient-6"/><linearGradient id="linear-gradient-11" x1="452.26" y1="737.43" x2="716.34" y2="473.35" xlink:href="#linear-gradient-6"/><linearGradient id="linear-gradient-12" x1="341.27" y1="735.14" x2="486.73" y2="589.68" xlink:href="#linear-gradient-6"/></defs><g id="Layer_1" data-name="Layer 1"><path class="cls-1" d="M818.2,181.8l-79.81,79.81,0,0a337.62,337.62,0,0,0-69.48-53.45l-.33-.19c-.79-.46-1.58-.92-2.38-1.37a338.19,338.19,0,0,0-261.85-30C287.71,211.12,197.43,306.94,170.88,426.74a338.1,338.1,0,0,0,48.46,260v165C116.12,769.32,50,642.38,50,500,50,251.47,251.47,50,500,50A449.12,449.12,0,0,1,818.2,181.8Z" transform="translate(-50 -50)"/><path class="cls-1" d="M818.2,818.2a450.5,450.5,0,0,1-486,99.48V792.46A335.56,335.56,0,0,0,500,837.1q15.57,0,30.78-1.39l.32,0a335.8,335.8,0,0,0,207.26-97.32Z" transform="translate(-50 -50)"/><path class="cls-2" d="M500,219.34C345,219.34,219.34,345,219.34,500V851.77a449.59,449.59,0,0,0,112.9,65.91V725A279.38,279.38,0,0,0,500,780.66C655,780.66,780.66,655,780.66,500S655,219.34,500,219.34Zm0,448.42A167.76,167.76,0,1,1,667.76,500,167.76,167.76,0,0,1,500,667.76Z" transform="translate(-50 -50)"/><circle class="cls-2" cx="450" cy="450" r="111.31"/><path class="cls-2" d="M950,500A449.12,449.12,0,0,1,818.2,818.2l-79.84-79.84a338.69,338.69,0,0,0,36.08-42.55A320.33,320.33,0,0,0,837.1,500a325.26,325.26,0,0,0-11.39-87.29c-.73-2.71-1.5-5.42-2.3-8.11-.19-.64-.38-1.27-.58-1.91a336.29,336.29,0,0,0-71.75-127.63q-1.82-2-3.68-4-4.41-4.8-9-9.41L818.2,181.8A448.64,448.64,0,0,1,950,500Z" transform="translate(-50 -50)"/><text class="cls-3" transform="translate(726.05 212.13) rotate(52.98) scale(0.75 1)">C</text><text class="cls-3" transform="translate(753.85 249.24) rotate(59.59) scale(0.75 1)">U</text><text class="cls-3" transform="translate(773.02 282.13) rotate(65.02) scale(0.75 1)">S</text><text class="cls-3" transform="translate(786.01 310.18) rotate(69.43) scale(0.75 1)">T</text><text class="cls-3" transform="translate(795.29 332.81) rotate(75.35) scale(0.75 1)">O</text><text class="cls-3" transform="translate(808.13 380.89) rotate(83.5) scale(0.75 1)">M</text><text class="cls-3" transform="translate(813.39 434.64) rotate(88.96) scale(0.75 1)"> </text><text class="cls-3" transform="translate(814.01 450.92) rotate(92.81) scale(0.75 1)">P</text><text class="cls-3" transform="translate(812.98 483.83) rotate(99.32) scale(0.75 1)">O</text><text class="cls-3" transform="matrix(-0.19, 0.73, -0.97, -0.25, 804.1, 533.41)">I</text><text class="cls-3" transform="translate(800.67 549.14) rotate(109.36) scale(0.75 1)">N</text><text class="cls-3" transform="translate(785.65 590.68) rotate(114.81) scale(0.75 1)">T</text><text class="cls-3" transform="matrix(-0.35, 0.66, -0.88, -0.47, 775.06, 613.33)"> </text><text class="cls-3" transform="translate(767.71 627.86) rotate(122.1) scale(0.75 1)">B</text><text class="cls-3" transform="matrix(-0.46, 0.59, -0.79, -0.62, 749.73, 657.02)">D</text></g><g id="Layer_2" data-name="Layer 2"><path class="cls-4" d="M668.39,207.85l-1.19-.68a337.54,337.54,0,0,0-336,.91h0l-.71.15a354.42,354.42,0,0,0-275.19,293v0a354.86,354.86,0,0,0-3.71,36.71Q50,519.17,50,500q0-17.94,1.38-35.52c10.79-138.16,84-258.8,191.4-333.76a355.06,355.06,0,0,1,425.13,76.59Z" transform="translate(-50 -50)"/><path class="cls-5" d="M757.26,869.25A447.45,447.45,0,0,1,693,906.61h0a451,451,0,0,1-383.64,1.1h0a353,353,0,0,1-30.61-22h0A355,355,0,0,1,162.57,501c.09-.29.18-.58.28-.87,0,.59,0,1.18,0,1.76.66,124.1,68.36,232.32,168.73,290.3l.5.55a357,357,0,0,0,169,103.61h0a355.51,355.51,0,0,0,256.17-27Z" transform="translate(-50 -50)"/><path class="cls-6" d="M162.57,501a354.43,354.43,0,0,0,116.14,384.8h0a353,353,0,0,0,30.61,22,449,449,0,0,1-64.56-37.06h0l0,0h0C136.89,796.21,63.12,676,51.59,538v0a354.86,354.86,0,0,1,3.71-36.71v0a355,355,0,0,1,275.19-293l.71-.15c-.42.23-.81.47-1.22.71-100,58.49-167.13,167-167.13,291.2v.08C162.75,500.37,162.66,500.66,162.57,501Z" transform="translate(-50 -50)"/><path class="cls-7" d="M818.21,181.81,799,201l-39.48,39.48-21.14,21.14a337.64,337.64,0,0,0-70-53.76l-.48-.54a355.09,355.09,0,0,0-425.13-76.59,449.4,449.4,0,0,1,512.47-1.37A452.61,452.61,0,0,1,818.21,181.81Z" transform="translate(-50 -50)"/><path class="cls-8" d="M818.18,818.22a452.29,452.29,0,0,1-60.92,51,355.51,355.51,0,0,1-256.17,27h0a357,357,0,0,1-169-103.61l-.5-.55,1.22.7a337.55,337.55,0,0,0,336-.92c.41-.23.83-.47,1.24-.73h0a337.66,337.66,0,0,0,68.35-52.77Z" transform="translate(-50 -50)"/><path class="cls-9" d="M950,500A448.63,448.63,0,0,1,818.18,818.22l-79.8-79.8a337.14,337.14,0,0,0,0-476.81l39.9-39.9,39.9-39.9A448.66,448.66,0,0,1,950,500Z" transform="translate(-50 -50)"/><text class="cls-10" transform="matrix(0.46, 0.59, -0.79, 0.62, 733.87, 205.99)">C</text><text class="cls-10" transform="translate(755.98 234.19) rotate(57.63) scale(0.75 1)">U</text><text class="cls-10" transform="translate(776.26 266.01) rotate(63.69) scale(0.75 1)">S</text><text class="cls-10" transform="matrix(0.26, 0.7, -0.94, 0.34, 794.53, 303.12)">T</text><text class="cls-10" transform="translate(807.04 336.79) rotate(75.47) scale(0.75 1)">O</text><text class="cls-10" transform="matrix(0.1, 0.74, -0.99, 0.13, 817.42, 376.32)">M</text><text class="cls-10" transform="translate(823.16 422.98) rotate(87.74) scale(0.75 1)"> </text><text class="cls-10" transform="translate(824.38 447.41) rotate(92.42) scale(0.75 1)">P</text><text class="cls-10" transform="matrix(-0.11, 0.74, -0.99, -0.14, 822.84, 484.91)">O</text><text class="cls-10" transform="translate(816.33 525.63) rotate(102.6) scale(0.75 1)">I</text><text class="cls-10" transform="translate(813.53 540.02) rotate(106.83) scale(0.75 1)">N</text><text class="cls-10" transform="translate(802.37 576.95) rotate(112.82) scale(0.75 1)">T</text><text class="cls-10" transform="translate(786.82 613.04) rotate(117.73) scale(0.75 1)"> </text><text class="cls-10" transform="translate(775.75 634.78) rotate(122.63) scale(0.75 1)">B</text><text class="cls-10" transform="translate(753.74 669.01) rotate(128.82) scale(0.75 1)">D</text><path class="cls-11" d="M332,725.85V918.23a446.4,446.4,0,0,1-58-28.33V594.39a190.11,190.11,0,0,0,58,131.46Z" transform="translate(-50 -50)"/><path class="cls-12" d="M468.91,334.89l-.08,0-.42.08c-.58.1-1.16.22-1.74.34l-.21,0h-.06c-1.08.22-2.15.45-3.22.7s-2.17.49-3.25.76l-1.64.41h-.06c-1.11.28-2.21.57-3.29.88s-2.2.62-3.3.95l-2.22.68-1.38.45c-.64.2-1.27.41-1.91.63l-1.51.52-.43.15c-1.29.45-2.59.92-3.87,1.41l-.79.3-1.12.45-1.9.76-2.62,1.09-.34.15-2.67,1.18-.73.33-.72.33-1.18.55c-.63.3-1.27.6-1.89.91l-.31.15c-.93.46-1.85.92-2.76,1.39l-.4.2-3,1.58-.75.41-1,.57-1.76,1-1.75,1c-1.06.63-2.1,1.26-3.16,1.91l-.31.19-1.72,1.09-.84.55-.84.55q-3.37,2.22-6.65,4.6l-1.62,1.2c-.54.4-1.07.81-1.61,1.23l-1.6,1.23c-.33.25-.65.51-1,.77l-1.5,1.21-.67.55c-.51.42-1,.85-1.54,1.29L390.08,373l-.77.66-.76.68-.1.09-.9.8-.49.45c-.7.63-1.39,1.27-2.08,1.92l-.4.38c-.65.61-1.29,1.22-1.92,1.85-.48.46-1,.93-1.44,1.41s-1,1-1.41,1.44c-.95,1-1.87,1.93-2.78,2.91l-1.37,1.49c-.45.49-.91,1-1.36,1.51l-.13.15c-.41.45-.79.91-1.19,1.36-.61.71-1.22,1.42-1.82,2.14l-.2.24c-.63.74-1.24,1.5-1.85,2.26-.29.35-.57.7-.85,1.06-.61.75-1.2,1.53-1.8,2.31l-1.06,1.4c-.84,1.12-1.67,2.25-2.48,3.4-.48.67-.95,1.34-1.41,2s-.93,1.35-1.38,2-1.07,1.6-1.59,2.41l-.75,1.17c-.49.78-1,1.57-1.45,2.37-.29.47-.57.93-.85,1.41l-.18.31c-.36.58-.7,1.17-1,1.76l-1,1.76q-1.48,2.67-2.89,5.38-.64,1.28-1.29,2.58l-.33.67c0,.09-.09.17-.13.26s-.1.2-.14.3l-.55,1.15v0l-.24.51c-.29.62-.57,1.24-.85,1.86q-1.68,3.72-3.18,7.53l-.76,1.95c-.25.67-.5,1.33-.74,2l-.66,1.83c0,.07,0,.14-.07.21a188.39,188.39,0,0,0-53.33,73.21q-2.4,5.88-4.38,11.81A188.48,188.48,0,0,0,274,584.16c-.09,3.41-.09,6.83,0,10.23V889.9l-.68-.39-.47-.27q-3.33-1.95-6.64-4l-.4-.25q-3.31-2-6.62-4.11c-3.48-2.2-6.93-4.47-10.36-6.77-1.13-.76-2.27-1.53-3.4-2.31l-3.4-2.35c-2.25-1.58-4.48-3.17-6.71-4.78Q227,858.65,219,852.23V500c0-1.51,0-3,0-4.54,0-1.21,0-2.43.08-3.64,0-.75,0-1.5.08-2.25v-.2c0-.29,0-.57,0-.86v0c0-.83.06-1.66.11-2.48,0-.11,0-.21,0-.32.12-2.44.27-4.89.46-7.31,0-.05,0-.1,0-.15,0-.54.08-1.08.13-1.62,0-.2,0-.4,0-.6.06-.71.12-1.42.19-2.13.05-.51.09-1,.15-1.53l0-.3c.1-1.12.22-2.24.35-3.36s.28-2.5.44-3.75c0-.22.05-.43.08-.65v0A189.61,189.61,0,0,1,366.41,327.41c4.08-.83,8.22-1.53,12.39-2.1A188.73,188.73,0,0,1,468.91,334.89Z" transform="translate(-50 -50)"/><path class="cls-13" d="M627.46,390.59a167.33,167.33,0,0,0-13.86-14.32L612,374.78l-.86-.78-1.18-1c-1.72-1.49-3.48-3-5.26-4.37l-1.19-.94q-4.07-3.19-8.33-6.12l-1.17-.8a165.87,165.87,0,0,0-16.66-9.92l-1.59-.82c-2.79-1.41-5.64-2.75-8.51-4l-2.07-.89c-1.18-.49-2.36-1-3.55-1.44-.6-.25-1.2-.48-1.8-.71l-2.27-.85-1.71-.6A162.52,162.52,0,0,0,540,336.81c-.68-.17-1.35-.33-2-.48l-2-.47-1.86-.39-1.45-.29-2.14-.41c-1.83-.34-3.67-.64-5.53-.92-1.17-.17-2.35-.33-3.53-.48-1.4-.18-2.81-.34-4.22-.48l-1.28-.13-1.6-.14c-1.26-.11-2.53-.2-3.81-.28l-1.8-.1-1.55-.07Q503.59,332,500,332c-1.19,0-2.38,0-3.56,0s-2.38.06-3.56.11c-1,0-2.06.09-3.08.16l-.58,0c-1.14.07-2.26.15-3.38.25h0c-.56.05-1.12.09-1.67.15l-2.86.29-1.88.22q-2.13.25-4.23.57l-1.81.28c-1.5.23-3,.49-4.47.77a188.73,188.73,0,0,0-90.11-9.58c-4.17.57-8.31,1.27-12.39,2.1A189.74,189.74,0,0,0,221.22,464.25c0-.18.05-.35.07-.53.17-1.33.36-2.65.55-4s.39-2.65.6-4l.18-1.14c.45-2.79.95-5.58,1.48-8.34q.85-4.44,1.86-8.84t2.13-8.72c.34-1.32.69-2.62,1-3.92q1.34-4.8,2.84-9.55c.38-1.23.77-2.45,1.18-3.67.29-.9.59-1.79.9-2.68s.52-1.52.79-2.27c.78-2.26,1.6-4.49,2.46-6.71.35-.92.7-1.83,1.06-2.74.07-.17.13-.35.2-.52l1.11-2.75.18-.46q1.24-3,2.55-6l.87-2,1-2.19.51-1.08c.37-.82.75-1.62,1.14-2.42.24-.55.5-1.09.77-1.63.53-1.11,1.07-2.21,1.62-3.31s1-2,1.53-3l.93-1.79c.45-.87.91-1.73,1.37-2.59l.32-.57c1.22-2.28,2.47-4.52,3.75-6.75.17-.3.34-.6.52-.9.69-1.21,1.4-2.4,2.11-3.58s1.31-2.15,2-3.22c1.09-1.78,2.2-3.53,3.33-5.27.52-.81,1.05-1.61,1.58-2.4l.25-.38c.73-1.11,1.48-2.2,2.22-3.29.06-.07.11-.15.16-.22.8-1.17,1.62-2.33,2.44-3.49l0-.05c.83-1.16,1.67-2.33,2.52-3.48h0c.92-1.25,1.86-2.5,2.8-3.73q2.78-3.68,5.67-7.22c1-1.17,1.91-2.34,2.88-3.49a.39.39,0,0,0,.08-.1q2.91-3.45,5.94-6.83l.1-.11q3-3.37,6.18-6.67,1.59-1.67,3.2-3.29,3.22-3.25,6.56-6.42c1-1,2-1.92,3.07-2.87l.54-.49c.79-.73,1.59-1.46,2.4-2.17q2.37-2.13,4.79-4.19c.78-.68,1.57-1.34,2.36-2l.78-.65c1.06-.87,2.11-1.74,3.17-2.59l.49-.39q1.5-1.22,3-2.4l.69-.53c.64-.5,1.27-1,1.91-1.46l1.88-1.43c.9-.68,1.8-1.35,2.71-2l1.64-1.17c.71-.52,1.42-1,2.14-1.53l.6-.42c1.17-.82,2.34-1.63,3.52-2.43q3.22-2.17,6.49-4.26c.72-.47,1.45-.93,2.18-1.38l3.14-2c1.26-.76,2.53-1.52,3.8-2.26s2.67-1.55,4-2.3,2.61-1.46,3.93-2.18l.46-.25c1.16-.63,2.31-1.24,3.47-1.85l.76-.39c1.2-.62,2.4-1.24,3.61-1.84h0c1.27-.64,2.55-1.26,3.83-1.88l.8-.38c1.24-.59,2.48-1.18,3.74-1.75s2.81-1.29,4.23-1.91,2.85-1.24,4.28-1.84a189.67,189.67,0,0,1,72.83-5.16h0A188.82,188.82,0,0,1,582.67,298c2.75,3.11,5.44,6.34,8,9.69A188.76,188.76,0,0,1,627.46,390.59Z" transform="translate(-50 -50)"/><path class="cls-14" d="M716.26,470.58q-2,5.94-4.38,11.81a188.39,188.39,0,0,1-53.33,73.21q1.14-3.26,2.16-6.59c.33-1.1.66-2.22,1-3.33s.62-2.24.91-3.36.53-2.08.78-3.11c.29-1.23.57-2.47.85-3.71.5-2.3.94-4.6,1.34-6.92.2-1.16.39-2.33.56-3.5.14-.92.27-1.85.39-2.78a.28.28,0,0,0,0-.09q.08-.47.12-.93c0-.16,0-.31.06-.47.12-.92.23-1.86.32-2.79.13-1.13.24-2.27.34-3.41,0-.17,0-.34,0-.51.09-1.07.16-2.14.23-3.23s.12-1.94.16-2.91c0-.36,0-.72.05-1.08a2.44,2.44,0,0,0,0-.27q.06-1.47.09-3c0-1.21,0-2.42,0-3.64s0-2.31,0-3.46-.05-2-.09-3c-.05-1.17-.1-2.33-.17-3.5-.06-.91-.12-1.84-.19-2.75,0-.06,0-.13,0-.19,0-.32,0-.65-.08-1q-.13-1.64-.3-3.27c-.08-.87-.18-1.73-.28-2.6s-.18-1.48-.28-2.21a2.89,2.89,0,0,0,0-.29c0-.37-.09-.74-.15-1.11a.41.41,0,0,0,0-.11c-.1-.74-.21-1.47-.33-2.21q-.53-3.46-1.2-6.87c-.2-1.06-.42-2.12-.65-3.16q-1.67-7.63-4-15c-.33-1-.67-2.08-1-3.11-.18-.54-.36-1.08-.56-1.62-.53-1.55-1.1-3.09-1.68-4.61-.43-1.12-.88-2.23-1.33-3.33q-.9-2.22-1.86-4.38c-.21-.49-.43-1-.66-1.48a1.89,1.89,0,0,0-.11-.25q-.48-1.06-1-2.13c-.37-.78-.74-1.57-1.13-2.35-.19-.39-.38-.78-.58-1.17-1.28-2.56-2.64-5.09-4-7.58l-.32-.55c-.55-1-1.12-1.94-1.7-2.9a7.45,7.45,0,0,0-.43-.71c-.53-.91-1.09-1.8-1.65-2.69a.94.94,0,0,0-.12-.18c-.5-.81-1-1.61-1.56-2.41-.82-1.26-1.66-2.5-2.52-3.74l-1.44-2-1.05-1.43-1.27-1.71c-.45-.6-.92-1.19-1.37-1.78s-.83-1.07-1.25-1.59-1-1.23-1.48-1.84l-1.21-1.46-1.37-1.62a188.76,188.76,0,0,0-36.77-82.89c-2.58-3.35-5.27-6.58-8-9.69a188.82,188.82,0,0,0-118.61-62.36h0a189.67,189.67,0,0,0-72.83,5.16l3.14-1.3c1.05-.43,2.1-.85,3.17-1.26,1.34-.53,2.69-1,4-1.56l2.34-.86q3.63-1.32,7.27-2.53l2.45-.8,2.8-.89,2-.62c1.54-.46,3.07-.91,4.61-1.35l2.79-.79c1.3-.35,2.61-.7,3.91-1l2.44-.62c1.55-.38,3.13-.76,4.69-1.11l3.38-.76,3.41-.71c1.14-.23,2.27-.46,3.41-.67q3.43-.66,6.89-1.22c1.15-.19,2.3-.38,3.45-.55q12.15-1.86,24.62-2.65c3.38-.21,6.8-.36,10.22-.45,2.56-.08,5.14-.11,7.72-.11,1.5,0,3,0,4.49,0,1.29,0,2.58,0,3.86.09.64,0,1.28,0,1.91.06l1.07,0c1.05,0,2.09.08,3.13.14,2.75.14,5.5.31,8.22.54q1.92.15,3.84.33l.31,0c1.4.13,2.8.27,4.2.43s2.78.31,4.17.49l.19,0,.4,0c1.44.18,2.87.39,4.3.59s3.13.46,4.69.71,3.1.51,4.65.78,3.07.56,4.59.85l.17,0q1.8.35,3.6.72l1.58.34,2,.44c1.28.28,2.56.58,3.84.88l2.19.53c.43.11.87.21,1.3.33,1,.23,1.94.48,2.9.74l1,.27c1.11.29,2.22.59,3.32.92.55.15,1.1.3,1.65.47,1.08.3,2.16.62,3.25.94s2.37.72,3.55,1.1l2,.62q3.66,1.17,7.27,2.45l1.77.63c1.13.4,2.25.81,3.37,1.24,1.43.54,2.86,1.09,4.28,1.65h0l4,1.61.83.35c1.05.43,2.1.88,3.15,1.33.26.1.51.21.77.33l3.83,1.69.1.05c1.21.55,2.42,1.12,3.63,1.68q4.3,2,8.56,4.2c.4.2.81.41,1.21.63,1,.51,2,1,3,1.57,1.24.67,2.49,1.34,3.71,2l.41.22c1.2.67,2.4,1.35,3.59,2,.27.14.53.29.79.45,1.1.63,2.18,1.26,3.25,1.9l.39.24c.89.53,1.77,1.07,2.65,1.62l1.58,1c1.1.67,2.18,1.36,3.25,2.05,1.23.79,2.45,1.58,3.66,2.39l.3.2c1.21.8,2.41,1.62,3.6,2.44s2.25,1.56,3.36,2.35l.56.4c1.12.8,2.23,1.61,3.33,2.41l.33.25c1.15.85,2.29,1.72,3.42,2.58l0,0a189.62,189.62,0,0,1,45.91,194.1Z" transform="translate(-50 -50)"/><path class="cls-15" d="M781,500c0,1.51,0,3,0,4.53,0,1.22,0,2.44-.08,3.65v.09l-.06,1.84c0,.18,0,.35,0,.52s0,.63,0,.95a2.55,2.55,0,0,1,0,.39c0,.65,0,1.31-.08,2,0,.06,0,.12,0,.18-.12,2.57-.29,5.14-.48,7.69,0,.54-.08,1.06-.13,1.59q-.17,2-.36,4c-.13,1.31-.26,2.61-.41,3.9-.16,1.47-.33,2.93-.52,4.4v.06c-1.19,4.45-2.54,8.85-4,13.17q-1,2.77-2,5.5A189.75,189.75,0,0,1,633.59,672.59q-6.12,1.24-12.4,2.1a188.59,188.59,0,0,1-90.11-9.58l2.5-.49c.47-.1,1-.19,1.43-.3l1.52-.32,2-.48,1.9-.46c.52-.12,1-.25,1.55-.39l.58-.14.61-.16,2.91-.8c.75-.22,1.49-.43,2.23-.66s1.62-.48,2.42-.74c.5-.15,1-.31,1.49-.48l1.62-.54,1.94-.67,2.65-1,.81-.31c.82-.3,1.63-.62,2.44-1l1.42-.56,2-.81,1.32-.57c.64-.27,1.27-.55,1.89-.83l1.61-.72.08,0,.33-.15c1-.48,2-1,3.08-1.46l1.24-.61c1.22-.6,2.42-1.22,3.62-1.86l1.75-.94c.64-.34,1.27-.69,1.9-1l.09,0,.08,0c.51-.28,1-.56,1.52-.86l1.75-1c.59-.34,1.18-.69,1.76-1.06,1.2-.72,2.38-1.45,3.55-2.21l1.75-1.15c.58-.38,1.16-.76,1.73-1.16,1-.64,1.93-1.31,2.87-2l.26-.18c.88-.62,1.75-1.26,2.62-1.9l.49-.37c.62-.46,1.22-.92,1.83-1.39l.52-.4.47-.36c.6-.47,1.2-.94,1.79-1.42l.69-.56.34-.27.06-.06c.89-.72,1.77-1.45,2.65-2.2.23-.18.45-.37.66-.56l.42-.37.06-.05.91-.78.6-.55.11-.1a8.27,8.27,0,0,0,.64-.56c.77-.69,1.54-1.39,2.29-2.09l.18-.17q1.38-1.29,2.73-2.61c.53-.51,1.07-1,1.59-1.57.27-.26.53-.53.79-.8.58-.58,1.15-1.17,1.71-1.76s.94-1,1.4-1.48.91-1,1.35-1.47,1.11-1.21,1.65-1.83c.41-.45.79-.91,1.19-1.36.62-.71,1.23-1.42,1.82-2.14a2.12,2.12,0,0,0,.2-.24l.94-1.13c.31-.37.61-.75.91-1.13s.57-.7.85-1.06l0-.06c.55-.69,1.09-1.4,1.63-2.1a1.58,1.58,0,0,0,.12-.15l1.07-1.41,1.2-1.62,1.18-1.64,1.16-1.65,1.14-1.68,1.12-1.68c.75-1.12,1.48-2.26,2.19-3.4s1.42-2.31,2.1-3.47l1-1.75c.34-.58.68-1.17,1-1.76s.66-1.18,1-1.79.65-1.19,1-1.79.64-1.2,1-1.8.61-1.2.91-1.8.59-1.21.88-1.81.44-.91.65-1.36h0l.24-.51c.29-.62.57-1.24.85-1.86s.61-1.35.91-2l.07-.16c1-2.41,2-4.83,3-7.28.25-.67.5-1.33.74-2s.49-1.36.73-2a188.39,188.39,0,0,0,53.33-73.21q2.4-5.88,4.38-11.81a189.62,189.62,0,0,0-45.91-194.1q3.64,2.77,7.19,5.67c1.18,1,2.36,1.94,3.53,2.93s2.1,1.78,3.14,2.69c1.3,1.12,2.59,2.27,3.88,3.43,1.09,1,2.17,2,3.25,3,.83.76,1.64,1.53,2.45,2.31,1,.93,2,1.88,2.93,2.83l1,1,1,1,.06.06.07.07.18.18,1.42,1.44.72.73c.57.58,1.14,1.16,1.69,1.75l.1.11q1.14,1.17,2.25,2.37h0c.74.78,1.47,1.57,2.2,2.37q1.57,1.72,3.13,3.48t2.93,3.37c1,1.16,2,2.32,3,3.51.78.93,1.56,1.88,2.32,2.83.33.4.66.81,1,1.22.82,1,1.63,2.05,2.43,3.08.93,1.22,1.86,2.43,2.77,3.65s1.83,2.45,2.73,3.68q2.69,3.74,5.27,7.52c.85,1.27,1.7,2.55,2.53,3.83s1.61,2.48,2.4,3.73a281.12,281.12,0,0,1,17.64,32.56q1.92,4.2,3.72,8.49a.05.05,0,0,1,0,0q1.32,3.12,2.55,6.3c.41,1.06.82,2.12,1.22,3.18s.81,2.12,1.19,3.19.77,2.15,1.15,3.22q.64,1.84,1.26,3.69c.31.93.62,1.87.91,2.8.35,1.08.7,2.17,1,3.26q.39,1.23.75,2.46c.16.54.31,1.07.47,1.59,0,.08.05.16.07.24.54,1.87,1.08,3.74,1.58,5.62.3,1.11.59,2.22.87,3.34.2.77.39,1.53.58,2.3a.83.83,0,0,0,0,.15c0,.1.05.2.07.3l.36,1.5c.11.42.21.85.3,1.27,0,.06,0,.12,0,.18.14.6.27,1.2.41,1.8s.23,1,.34,1.53.23,1,.33,1.52c.17.75.32,1.5.48,2.26.08.42.17.83.25,1.25.16.76.31,1.53.45,2.3.08.38.15.76.22,1.15.15.76.29,1.53.42,2.29.19,1,.36,2,.53,3.05.1.59.2,1.18.29,1.77a3.65,3.65,0,0,1,.07.46c0,.1,0,.2,0,.3.11.62.2,1.23.29,1.85.16,1.07.32,2.12.47,3.18,0,.1,0,.2,0,.3q.2,1.31.36,2.61c0,.2,0,.4.07.6.09.7.18,1.4.26,2.11l.27,2.3v0c.11.94.21,1.89.3,2.84l.15,1.52c.06.59.11,1.16.16,1.74,0,.25,0,.49.07.74a2.11,2.11,0,0,0,0,.25c0,.09,0,.17,0,.26s0,.33,0,.49,0,.37,0,.55v.05c0,.49.09,1,.12,1.46s0,.74.08,1.11c.05.57.09,1.14.12,1.72,0,.12,0,.25,0,.37,0,.43.06.86.08,1.28.05.73.09,1.45.12,2.17s.07,1.23.09,1.84.06,1.23.08,1.85c0,.79.06,1.57.08,2.36,0,.17,0,.35,0,.52v.06c0,.13,0,.26,0,.39,0,1.28.06,2.56.08,3.84S781,498.68,781,500Z" transform="translate(-50 -50)"/><path class="cls-16" d="M778.77,535.77c0,.18,0,.36-.07.54s-.07.54-.11.8c-.16,1.24-.34,2.47-.51,3.7l0,.2c-.18,1.21-.36,2.41-.55,3.6l-.18,1.09a.29.29,0,0,1,0,.09c0,.22-.07.43-.11.65-.16,1-.33,2-.51,3,0,.08,0,.18,0,.27l-.06.35c-.25,1.41-.51,2.81-.79,4.21s-.61,3.06-.93,4.57-.66,3-1,4.54c0,0,0,0,0,.06-.34,1.5-.7,3-1.07,4.47-.29,1.18-.59,2.35-.9,3.52,0,.18-.09.35-.14.52s-.11.46-.18.69q-.4,1.55-.84,3.06c-.21.76-.43,1.53-.65,2.28-.32,1.1-.64,2.21-1,3.31-.44,1.47-.9,2.94-1.37,4.4-.41,1.28-.83,2.57-1.26,3.84-.13.4-.26.8-.4,1.2-.42,1.23-.84,2.45-1.28,3.66s-.83,2.32-1.26,3.47l-.1.27c-.09.24-.18.48-.28.71-.49,1.32-1,2.64-1.51,3.95,0,.12-.09.25-.14.37-.51,1.27-1,2.54-1.54,3.81-.08.18-.15.37-.23.55q-.68,1.63-1.38,3.27-.18.45-.39.9l0,.09-.06.14q-.8,1.84-1.62,3.66c-.56,1.25-1.15,2.5-1.73,3.75-.13.29-.27.58-.41.86-.57,1.21-1.15,2.42-1.74,3.62,0,.09-.09.17-.12.25-.63,1.28-1.27,2.55-1.92,3.82l0,0q-1,2-2.08,4c-.71,1.33-1.43,2.67-2.17,4q-2.19,4-4.5,7.84t-4.76,7.69q-4.86,7.61-10.21,14.87-1.34,1.82-2.7,3.6-2.77,3.68-5.67,7.22c-1,1.17-1.91,2.34-2.88,3.49a.39.39,0,0,0-.08.1c-1.68,2-3.38,4-5.12,5.9q-.21.25-.45.51c-.35.4-.7.8-1.07,1.19l-.07.08c-.78.87-1.57,1.73-2.37,2.59-1,1.12-2.08,2.24-3.14,3.34s-2.13,2.21-3.2,3.29q-3.22,3.25-6.56,6.42c-1,1-2,1.92-3.07,2.87l-.91.83-1.85,1.67-.18.16-1.36,1.21,0,0c-.77.68-1.54,1.36-2.32,2l-1.09.94c-.78.68-1.57,1.34-2.36,2l-2.87,2.36-1.92,1.55-2.62,2.07-2.66,2-1.88,1.43c-.9.68-1.8,1.35-2.71,2l-1.64,1.17c-.91.66-1.82,1.3-2.74,2s-1.86,1.3-2.8,1.93l0,0c-1.29.89-2.6,1.76-3.9,2.62L652.67,736c-.54.36-1.09.7-1.63,1-.72.47-1.45.93-2.18,1.38a.82.82,0,0,1-.2.12l-2.78,1.73-.16.1c-1.26.76-2.53,1.52-3.8,2.26s-2.67,1.55-4,2.3-2.61,1.46-3.93,2.18l-.24.13c-1,.54-2,1.08-3,1.61h0l-.23.12-.11.06-1.15.6c-1.18.61-2.36,1.22-3.55,1.81h0c-1.27.64-2.55,1.26-3.83,1.88q-2.25,1.08-4.54,2.13c-1.4.66-2.81,1.29-4.23,1.91s-2.85,1.24-4.28,1.84A189.68,189.68,0,0,1,417.33,702c-2.75-3.11-5.44-6.34-8-9.69a188.76,188.76,0,0,1-36.77-82.89c.66.77,1.33,1.54,2,2.3l.43.47c.66.74,1.32,1.47,2,2.19.4.44.81.87,1.22,1.3.89.94,1.79,1.86,2.7,2.78.68.69,1.37,1.36,2.05,2s1.08,1,1.63,1.56,1.21,1.14,1.82,1.7c.89.82,1.79,1.63,2.7,2.44l1,.85c.86.75,1.73,1.49,2.61,2.21s1.69,1.4,2.55,2.08l1.29,1,1.28,1c.26.22.51.41.77.6,1,.79,2.07,1.56,3.11,2.31.18.13.36.27.55.39.47.35.94.68,1.42,1s.79.56,1.2.83l1.12.76,1.36.91,1.29.85c.56.38,1.13.74,1.7,1.1l1.8,1.12,1.24.75c.5.31,1,.61,1.51.9q2.12,1.24,4.27,2.43l1.57.85c.95.51,1.9,1,2.87,1.51l1.09.56c1,.5,2,1,3,1.47,1.18.57,2.37,1.12,3.56,1.65l1.53.68,2.07.89,2.08.85,1.47.59,1.53.61,2.82,1.05.07,0,1.36.48A162.52,162.52,0,0,0,460,663.19c.68.17,1.35.33,2,.48l2,.47,1.86.39,1.59.32,2,.39.13,0,1.94.34.8.13,1.75.29,1.29.19.22,0h0c.95.14,1.91.27,2.87.39l.22,0,2,.24,2,.21,1.3.13.52,0c1.05.09,2.11.18,3.17.25l.94.07h.32l.44,0,.77.05,2.58.12c.7,0,1.4.06,2.11.07l.94,0,1,0,3.06,0c1.19,0,2.38,0,3.56,0s2.38-.06,3.56-.11c.92,0,1.83-.08,2.74-.14l.92-.05c1.14-.07,2.26-.16,3.38-.25l1.77-.16,2.5-.25c1-.11,2-.23,3-.36l.33,0,1.29-.17,1.29-.18,1.86-.28c.86-.13,1.72-.27,2.57-.42l2.28-.41h0a188.59,188.59,0,0,0,90.11,9.58q6.27-.86,12.4-2.1A189.75,189.75,0,0,0,772.72,554.44q1-2.73,2-5.5C776.23,544.62,777.58,540.22,778.77,535.77Z" transform="translate(-50 -50)"/><path class="cls-17" d="M608.78,759.19c-1.34.56-2.68,1.12-4,1.66l-.31.12-4,1.56-1.79.69-3.24,1.19c-.64.23-1.27.46-1.9.67-1.13.41-2.26.8-3.4,1.18-1.43.49-2.88,1-4.32,1.42s-2.89.91-4.34,1.35-3,.9-4.53,1.33l-.7.2-.69.19c-1.76.5-3.54,1-5.31,1.43l-1.35.35-.37.09-2.13.52c-1.09.27-2.19.52-3.28.77-.84.19-1.69.39-2.54.57l-1.89.41c-1.93.41-3.85.79-5.77,1.16q-3.43.66-6.89,1.22c-2.15.36-4.33.69-6.5,1l-1.07.16-1.07.15-2.25.29-2.51.3-2.29.25-2.46.26-2.83.26c-.83.07-1.67.15-2.51.21l-.38,0q-2.08.17-4.2.3l-3.34.19-2,.09h-.06l-2.34.1-2.48.07c-.86,0-1.72.05-2.59.06L503,781l-3,0c-1.06,0-2.11,0-3.16,0H495.4c-1.2,0-2.4,0-3.59-.08l-1.38,0c-1,0-2.06-.07-3.08-.12h-.07l-.79,0-.86,0c-1,0-2.07-.11-3.1-.18l-1.55-.1c-1.07-.06-2.12-.14-3.17-.22-1.5-.12-3-.25-4.48-.39s-2.93-.29-4.38-.45-2.91-.33-4.37-.51h0c-1.53-.19-3.06-.4-4.58-.63s-2.85-.41-4.27-.64-2.73-.44-4.09-.68c-1.06-.18-2.13-.37-3.19-.57l-.48-.09-.41-.08-1.53-.29c-1.41-.27-2.82-.56-4.24-.85s-2.81-.6-4.21-.92L437,774c-1.29-.3-2.59-.6-3.87-.92l-.69-.17c-1.16-.28-2.31-.57-3.46-.88l-1.16-.3-2.81-.76-1.68-.47c-1.25-.35-2.49-.71-3.73-1.09-1.46-.43-2.9-.87-4.34-1.33s-2.88-.92-4.32-1.4-2.85-1-4.27-1.46-2.85-1-4.26-1.54c-2.82-1-5.63-2.14-8.4-3.27-1.39-.56-2.77-1.14-4.15-1.73s-2.76-1.18-4.12-1.79-2.73-1.23-4.09-1.87l-.12-.05c-1.08-.5-2.15-1-3.22-1.53l-1.1-.53-3.15-1.55-.47-.24c-1.33-.67-2.66-1.35-4-2-1.07-.56-2.13-1.12-3.19-1.71l-.12-.06-1.3-.71q-1.62-.88-3.24-1.8-1.94-1.1-3.86-2.22c-2.56-1.5-5.1-3.06-7.61-4.64-1.26-.79-2.5-1.59-3.74-2.4l-3.39-2.23-.32-.22q-1.85-1.26-3.66-2.53t-3.63-2.57c-1.2-.86-2.39-1.74-3.57-2.62v.53a190.11,190.11,0,0,1-58-131.46c-.09-3.4-.09-6.82,0-10.23a188.48,188.48,0,0,1,9.72-54.74q2-5.94,4.38-11.81a188.39,188.39,0,0,1,53.33-73.21q-.57,1.64-1.11,3.27c-.36,1.1-.71,2.2-1,3.32s-.66,2.22-1,3.33-.62,2.24-.91,3.36-.53,2.08-.78,3.11l-.15.65c-.24,1-.48,2-.7,3.06-.5,2.3-.94,4.6-1.34,6.92-.2,1.16-.39,2.33-.56,3.5-.14.92-.27,1.85-.39,2.78,0,0,0,.06,0,.09q-.08.46-.12.93l-.06.47c-.12.92-.23,1.86-.32,2.79-.13,1.13-.24,2.27-.34,3.41,0,.17,0,.34,0,.51-.09,1.07-.16,2.14-.23,3.23a.28.28,0,0,0,0,.09q-.09,1.41-.15,2.82c0,.36,0,.72,0,1.08,0,.09,0,.18,0,.27q-.06,1.47-.09,3c0,1.21,0,2.42,0,3.64,0,1.06,0,2.12,0,3.17v.29c0,1,.05,2,.09,3a1,1,0,0,1,0,.17c0,.93.08,1.85.13,2.77l0,.56c.05.89.11,1.79.18,2.68,0,.09,0,.17,0,.26,0,.35.05.71.09,1.07,0,.65.11,1.31.17,2v0l.12,1.19c.07.71.14,1.41.23,2.12,0,.15,0,.3.05.45.09.77.18,1.55.29,2.33,0,0,0,0,0,.08l.09.66c0,.22.06.44.09.66v0c.1.72.21,1.45.32,2.17l.06.4c0,.15,0,.3.07.46.11.71.23,1.42.35,2.12,0,0,0,0,0,.05l.18,1a1.55,1.55,0,0,0,0,.21l0,.16c.15.83.3,1.66.47,2.48.2,1.06.42,2.12.65,3.16.15.73.33,1.46.5,2.19s.3,1.31.47,2c.11.45.21.89.33,1.33s.22.89.34,1.33q.67,2.66,1.46,5.26.24.84.51,1.68c0,.13.07.26.11.38s.11.37.17.55l.48,1.49c.42,1.31.86,2.6,1.32,3.89l.34,1c.11.33.23.66.35,1l.72,1.93c.18.48.36,1,.56,1.44a.78.78,0,0,0,.05.14l0,.1.86,2.13c.34.82.68,1.65,1,2.47s.81,1.87,1.22,2.79c.06.12.11.25.17.37l1,2.22c.05.09.09.18.13.27s.05.1.07.16c.35.74.7,1.46,1.05,2.18l.55,1.11c.38.75.75,1.49,1.14,2.23s.76,1.43,1.14,2.13l.61,1.14.09.17,1.15,2.06c.47.83.95,1.65,1.43,2.47.38.64.76,1.28,1.15,1.91.28.47.56,1,.85,1.41l.06.09c.5.81,1,1.61,1.53,2.41l1.53,2.3c.49.74,1,1.47,1.49,2.21l.26.37c.81,1.17,1.64,2.32,2.48,3.46s1.7,2.28,2.58,3.4c.63.83,1.28,1.65,1.94,2.46l1,1.27c.34.41.68.83,1,1.24l1.37,1.62a188.76,188.76,0,0,0,36.77,82.89c2.58,3.35,5.27,6.58,8,9.69a189.68,189.68,0,0,0,191.45,57.2Z" transform="translate(-50 -50)"/><circle class="cls-9" cx="450" cy="450" r="111.46"/><circle class="cls-18" cx="450" cy="450" r="92.98"/><circle class="cls-19" cx="450" cy="450" r="74.5"/><circle class="cls-20" cx="450" cy="450" r="56.03"/><circle class="cls-21" cx="450" cy="450" r="37.55"/></g></svg>